<?xml version="1.0" encoding="UTF-8" standalone="no"?>
<svg width="322px" height="396px" viewBox="0 0 322 396" version="1.1" xmlns="http://www.w3.org/2000/svg" xmlns:xlink="http://www.w3.org/1999/xlink">
    <!-- Generator: Sketch 3.6.1 (26313) - http://www.bohemiancoding.com/sketch -->
    <title>Slice 1</title>
    <desc>Created with Sketch.</desc>
    <defs></defs>
    <g id="Page-1" stroke="none" stroke-width="1" fill="none" fill-rule="evenodd">
        <g id="Aka-Red" transform="translate(1.000000, 1.000000)" fill="#FF0000" stroke="#000000">
            <g id="ƒŒƒCƒ_x201E__x5B__1">
                <g id="Group">
                    <path d="M71.8827359,267.401849 C68.9802236,246.403566 50.1148332,220.562127 37.0544673,218.94461 C23.992849,217.330225 6.57777538,206.02389 6.57777538,206.02389 C6.57777538,206.02389 5.12745857,217.330225 3.67714176,233.482846 C2.22682495,249.631711 -9.38510278,257.708648 21.0922154,277.091919 C50.9408124,296.075038 73.8096033,288.70823 72.0123627,268.673068 C73.8678414,267.521456 76.1704385,266.10245 78.8293527,264.48055 C76.1904774,265.850711 73.8916376,267.125688 71.9716586,268.276673 C71.9403478,267.983604 71.9228138,267.698675 71.8827359,267.401849 L71.8827359,267.401849 Z" id="Shape"></path>
                    <path d="M277.465144,183.779437 C260.539145,176.748281 225.090296,188.412185 187.997003,205.342567 C185.077583,183.659204 175.011784,166.089455 165.768832,157.069436 C184.428197,154.643474 201.119365,152.443576 211.102504,150.990129 C243.949424,146.207715 304.59471,150.544889 267.671122,118.120038 C249.341146,102.026281 230.691174,114.482974 213.773943,119.380611 C204.369427,122.1034 192.699261,125.262661 166.143309,129.285474 C166.139552,129.247901 166.142057,129.212833 166.138299,129.174633 C165.920376,126.24582 165.607268,122.368289 165.244063,117.88646 C206.006983,99.5514742 236.923904,67.4873241 220.22898,59.0565749 C198.191804,47.9268337 179.271933,60.3922941 176.161517,61.8307128 C174.674253,62.5195507 169.153531,63.594764 161.260701,64.8772548 C160.490455,52.0298025 160.142905,41.6158264 160.794796,38.3551185 C162.058501,32.0466161 169.417794,2.63136064 105.591956,0.0676313539 C105.591956,0.0676313539 115.86065,6.75436836 121.748335,39.0364417 C123.874339,50.6922046 125.290214,60.9220731 126.213883,69.9708977 C93.3907589,74.4245476 56.6199675,78.8681781 56.6199675,78.8681781 C56.6199675,78.8681781 61.2946717,91.1107056 68.4197601,89.637845 C73.2228387,88.644666 102.287413,90.3210469 127.633515,91.743184 C127.917817,103.490374 127.290349,112.34382 126.650356,119.155174 C114.814869,125.899523 102.41704,132.777882 93.6399929,138.176492 C83.0719677,139.280511 71.5189043,140.434001 58.8461662,141.64072 C21.4497849,145.202012 14.3265751,139.860387 14.3265751,139.860387 C33.6109042,191.182565 49.0521443,174.58533 63.2985637,171.023412 C67.5086155,169.970743 90.3479742,166.882244 117.384234,163.348506 C119.843385,167.732646 121.185367,172.808755 121.522271,177.957505 C123.052117,201.328521 115.738538,217.248816 108.08868,247.133734 C96.2162466,253.975773 86.1153786,260.032536 78.8293527,264.479298 C86.0608978,260.722626 95.7891671,256.265219 106.902627,251.787147 C102.455239,269.27674 86.1047329,330.015958 83.2867599,347.550013 C80.4687868,365.084068 117.01414,364.556794 120.9067,354.132172 C134.581384,379.867781 181.466821,401.832941 189.399728,390.497175 C203.016174,371.041889 195.64874,347.828053 194.038738,342.684313 C191.108046,333.307351 188.910653,267.940395 188.811085,229.183872 C211.977328,226.755405 231.033088,230.041162 237.588946,244.202416 C253.08905,277.688703 308.712082,305.945458 319.284491,254.270094 C324.085064,230.827063 298.259906,192.416838 277.465144,183.779437 L277.465144,183.779437 Z M125.952125,162.231336 C134.755473,161.085987 143.82872,159.914336 152.714102,158.762098 C155.644794,164.726182 159.852967,173.773754 160.705247,178.20486 C162.598299,188.043343 164.718041,198.420373 165.290403,216.220569 C153.893893,221.918511 142.673977,227.850031 132.104073,233.635643 C133.497404,221.07625 134.696608,210.226428 135.419888,203.077543 C136.938462,188.049606 132.191117,172.816269 125.952125,162.231336 L125.952125,162.231336 Z M154.367313,348.896378 C152.821811,360.172027 131.789712,352.184639 122.320697,347.979597 C122.511066,345.993239 122.436547,344.202261 122.163516,342.862784 C120.835938,336.345752 126.558928,283.709146 131.082714,242.859808 C142.27132,239.101258 153.96403,235.708419 165.365549,233.154083 C164.889624,257.674206 161.988364,293.285871 154.367313,348.896378 L154.367313,348.896378 Z" id="Shape"></path>
                </g>
            </g>
        </g>
    </g>
</svg>