<?xml version="1.0" encoding="UTF-8" standalone="no"?>
<svg width="269px" height="396px" viewBox="0 0 269 396" version="1.1" xmlns="http://www.w3.org/2000/svg" xmlns:xlink="http://www.w3.org/1999/xlink">
    <!-- Generator: Sketch 3.6.1 (26313) - http://www.bohemiancoding.com/sketch -->
    <title>Slice 1</title>
    <desc>Created with Sketch.</desc>
    <defs></defs>
    <g id="Page-1" stroke="none" stroke-width="1" fill="none" fill-rule="evenodd">
        <g id="Shiro-White" transform="translate(2.000000, 2.000000)" fill="#FFFFFF" stroke="#000000">
            <g id="ƒŒƒCƒ_x201E__x5B__1">
                <g id="Group">
                    <path d="M85.8816608,125.246049 C116.590846,111.22637 137.875074,105.383871 143.154806,96.9164552 C173.308327,98.0719065 193.443407,76.6616063 181.79274,50.7154735 C170.141463,24.7693407 116.65916,27.8247321 111.034805,24.9126288 C105.409231,22.0023548 90.9601098,0.509130282 90.9601098,0.509130282 L96.6436299,27.0546344 L88.7618477,10.9270944 C75.8705408,64.5394277 115.966256,85.1168274 115.966256,85.1168274 C115.966256,85.1168274 106.188748,112.373894 85.8816608,125.246049 L85.8816608,125.246049 Z" id="Shape"></path>
                    <path d="M264.923523,152.557383 C269.145602,145.188103 249.88702,131.91718 239.982032,124.78143 C225.41702,114.28481 186.418606,131.479999 179.035763,135.655477 C174.093943,138.45173 112.243728,149.801372 71.889393,156.998097 C65.1122314,141.85833 46.4971476,125.463725 0.134799093,128.666673 C0.134799093,128.666673 18.6675395,141.058356 28.4523677,197.887661 C48.6527132,315.20835 36.9874071,340.032567 41.2302238,358.511253 C42.7648596,365.194578 48.2897926,381.43492 58.7211685,391.010837 C69.1525444,400.589194 94.2849508,380.306907 90.7185694,345.212892 C90.0775113,338.903334 89.0741424,329.795695 87.8780292,319.049083 C95.2797803,325.304983 110.711532,330.92005 113.5783,337.700933 C117.28009,346.461023 140.727203,351.329772 187.630578,364.956781 C189.612917,365.532982 191.451308,366.02504 193.176249,366.448807 C190.183831,383.158036 223.273654,380.008135 233.711739,371.91144 C246.215727,362.215404 252.415265,261.272856 249.719284,217.454117 C248.083396,190.830566 265.962269,165.199667 264.923523,152.557383 L264.923523,152.557383 Z M86.6983847,308.471977 C84.5897853,289.60367 82.1072862,267.378152 79.9401315,246.61844 C101.221919,247.873889 123.537574,252.364601 138.263612,253.009702 C157.777153,253.865163 100.167315,293.018806 86.6983847,308.471977 L86.6983847,308.471977 Z M204.887301,344.307432 C201.232477,339.07589 197.11409,333.690694 193.802058,328.941454 C180.225777,309.471336 101.236558,323.344069 95.0644677,319.44907 C88.8935971,315.554681 87.3516418,314.58337 133.016817,292.192003 C178.680772,269.803075 222.187331,215.046266 206.14197,198.498007 C190.098438,181.948529 162.946485,206.284957 155.539854,211.153096 C150.672448,214.353605 107.39767,224.286218 78.3176628,230.713454 C75.6521785,203.872838 73.9186988,182.129011 74.8873004,177.807806 C75.2453414,176.209076 75.4545545,173.907929 75.3228052,171.167772 C83.5851966,170.567791 93.7951604,169.94281 106.40711,169.325757 C159.760713,166.714254 186.210003,155.540826 228.490561,157.391377 C227.015091,191.431157 220.994878,304.378814 204.887301,344.307432 L204.887301,344.307432 Z" id="Shape"></path>
                </g>
            </g>
        </g>
    </g>
</svg>