<?xml version="1.0" encoding="utf-8"?>
<!-- Generator: Adobe Illustrator 15.0.0, SVG Export Plug-In . SVG Version: 6.00 Build 0)  -->
<!DOCTYPE svg PUBLIC "-//W3C//DTD SVG 1.1//EN" "http://www.w3.org/Graphics/SVG/1.1/DTD/svg11.dtd">
<svg xmlns="http://www.w3.org/2000/svg" xmlns:xlink="http://www.w3.org/1999/xlink" version="1.1" id="Слой_1" x="0px" y="0px" width="50px" height="50px" viewBox="0 0 50 50" enable-background="new 0 0 50 50" xml:space="preserve" fill="#000000">
<path d="M25,3.988C12.312,3.988,1.988,14.312,1.988,27S12.312,50.012,25,50.012S48.012,39.688,48.012,27S37.688,3.988,25,3.988z   M26.012,29.813V32c0,0.559-0.453,1.012-1.012,1.012S23.988,32.559,23.988,32v-2.188C22.832,29.396,22,28.3,22,27  s0.832-2.396,1.988-2.813V11c0-0.559,0.453-1.012,1.012-1.012s1.012,0.453,1.012,1.012v13.188C27.168,24.604,28,25.7,28,27  S27.168,29.396,26.012,29.813z" fill="#000000"/>
<rect x="42.465" y="2.535" transform="matrix(-0.707 0.7072 -0.7072 -0.707 79.8176 -21.9958)" width="4" height="5.999" fill="#000000"/>
<rect x="41.522" y="5.674" transform="matrix(-0.7072 -0.707 0.707 -0.7072 67.7263 42.6543)" width="2.346" height="3.258" fill="#000000"/>
<path d="M25,1.988c0.674,0,1.34,0.035,2,0.087V0h-4v2.075C23.661,2.023,24.326,1.988,25,1.988z" fill="#000000"/>
</svg>
