<?xml version="1.0" encoding="utf-8"?>
<!-- Generator: Adobe Illustrator 15.0.0, SVG Export Plug-In . SVG Version: 6.00 Build 0)  -->
<!DOCTYPE svg PUBLIC "-//W3C//DTD SVG 1.1//EN" "http://www.w3.org/Graphics/SVG/1.1/DTD/svg11.dtd">
<svg xmlns="http://www.w3.org/2000/svg" xmlns:xlink="http://www.w3.org/1999/xlink" version="1.1" id="Слой_1" x="0px" y="0px" width="50px" height="50px" viewBox="0 0 50 50" enable-background="new 0 0 50 50" xml:space="preserve" fill="#000000">
<path d="M25,0C11.193,0,0,11.192,0,25s11.193,25,25,25c13.807,0,25-11.193,25-25S38.807,0,25,0z M25,47.969  C12.335,47.969,2.031,37.665,2.031,25c0-6.131,2.387-11.897,6.72-16.235c0.391-0.392,1.023-0.391,1.414-0.001  c0.391,0.39,0.391,1.023,0.001,1.414C6.21,14.139,4.031,19.402,4.031,25c0,11.563,9.407,20.969,20.969,20.969  c11.563,0,20.969-9.406,20.969-20.969C45.969,13.773,37.1,4.579,26,4.055v7.215c0,0.552-0.448,1-1,1s-1-0.448-1-1V2.031h1  c12.665,0,22.969,10.304,22.969,22.969S37.665,47.969,25,47.969z M12.462,12.462c0,0,13.487,9.245,14.659,10.417  s1.172,3.072,0,4.243c-1.171,1.171-3.07,1.172-4.242,0S12.462,12.462,12.462,12.462z" fill="#000000"/>
</svg>
